<svg width="16" height="16" viewBox="0 0 16 16" fill="none" xmlns="http://www.w3.org/2000/svg">
<path fill-rule="evenodd" clip-rule="evenodd" d="M5.66668 1.94857C5.11439 1.94857 4.66668 2.39628 4.66668 2.94857V13.0527C4.66668 13.605 5.11439 14.0527 5.66668 14.0527H10.3333C10.8856 14.0527 11.3333 13.605 11.3333 13.0527V2.94857C11.3333 2.39628 10.8856 1.94857 10.3333 1.94857H10.2778L10.1154 2.3382C10.0119 2.58661 9.76913 2.74842 9.50001 2.74842H6.50001C6.23089 2.74842 5.98817 2.58661 5.88464 2.3382L5.72226 1.94857H5.66668ZM3.33334 2.94857C3.33334 1.6599 4.37801 0.615234 5.66668 0.615234H10.3333C11.622 0.615234 12.6667 1.6599 12.6667 2.94857V13.0527C12.6667 14.3414 11.622 15.3861 10.3333 15.3861H5.66668C4.37801 15.3861 3.33334 14.3414 3.33334 13.0527V2.94857Z" fill="white"/>
</svg>
