<svg width="16" height="16" viewBox="0 0 16 16" fill="none" xmlns="http://www.w3.org/2000/svg">
<path fill-rule="evenodd" clip-rule="evenodd" d="M15.1667 11.9993V4.66602C15.1667 3.56145 14.2712 2.66602 13.1667 2.66602L2.83334 2.66603C1.72877 2.66603 0.833344 3.56146 0.833344 4.66603V11.9993C0.833344 13.1039 1.72877 13.9993 2.83334 13.9993L13.1667 13.9993C14.2712 13.9993 15.1667 13.1039 15.1667 11.9993ZM13.8333 6.17232V11.9993C13.8333 12.3675 13.5349 12.666 13.1667 12.666L2.83334 12.666C2.46515 12.666 2.16668 12.3675 2.16668 11.9993L2.16668 6.17223L6.87546 9.3742C7.55418 9.83573 8.44598 9.83573 9.1247 9.3742L13.8333 6.17232ZM13.8258 4.56509C13.7771 4.24479 13.5006 3.99935 13.1667 3.99935L2.83334 3.99936C2.49949 3.99936 2.22296 4.24476 2.17428 4.56501L7.6252 8.27164C7.85144 8.42548 8.14871 8.42548 8.37495 8.27164L13.8258 4.56509Z" fill="white"/>
</svg>
