<svg width="14" height="16" viewBox="0 0 14 16" fill="none" xmlns="http://www.w3.org/2000/svg">
<path fill-rule="evenodd" clip-rule="evenodd" d="M7.00009 2.16634C5.71142 2.16634 4.66676 3.21101 4.66676 4.49967C4.66676 5.78834 5.71142 6.83301 7.00009 6.83301C8.28875 6.83301 9.33342 5.78834 9.33342 4.49967C9.33342 3.21101 8.28875 2.16634 7.00009 2.16634ZM3.33342 4.49967C3.33342 2.47463 4.97505 0.833008 7.00009 0.833008C9.02513 0.833008 10.6668 2.47463 10.6668 4.49967C10.6668 6.52472 9.02513 8.16634 7.00009 8.16634C4.97505 8.16634 3.33342 6.52472 3.33342 4.49967Z" fill="#FF3F3A"/>
<path fill-rule="evenodd" clip-rule="evenodd" d="M3.06946 10.1663C2.60725 10.1663 2.24598 10.3914 2.09933 10.7148C1.89636 11.1623 1.71255 11.6951 1.66918 12.2005C1.64979 12.4264 1.74398 12.5928 1.87377 12.6735C2.55988 13.0997 4.14968 13.833 7.00009 13.833C9.85049 13.833 11.4403 13.0997 12.1264 12.6735C12.2562 12.5928 12.3504 12.4264 12.331 12.2005C12.2876 11.6951 12.1038 11.1623 11.9009 10.7148C11.7542 10.3914 11.3929 10.1663 10.9307 10.1663H3.06946ZM0.885041 10.164C1.29034 9.27039 2.19536 8.83301 3.06946 8.83301H10.9307C11.8048 8.83301 12.7098 9.27039 13.1151 10.164C13.3479 10.6773 13.5977 11.3673 13.6594 12.0864C13.7156 12.7413 13.4435 13.4249 12.83 13.8061C11.9276 14.3666 10.0932 15.1663 7.00009 15.1663C3.90702 15.1663 2.07256 14.3666 1.1702 13.8061C0.556691 13.4249 0.28453 12.7413 0.340733 12.0864C0.402452 11.3673 0.65225 10.6773 0.885041 10.164Z" fill="#FF3F3A"/>
</svg>
