<svg width="20" height="20" viewBox="0 0 20 20" fill="none" xmlns="http://www.w3.org/2000/svg">
<path fill-rule="evenodd" clip-rule="evenodd" d="M10.0001 2.70866C8.3893 2.70866 7.08347 4.0145 7.08347 5.62533C7.08347 7.23616 8.3893 8.54199 10.0001 8.54199C11.611 8.54199 12.9168 7.23616 12.9168 5.62533C12.9168 4.0145 11.611 2.70866 10.0001 2.70866ZM5.4168 5.62533C5.4168 3.09402 7.46883 1.04199 10.0001 1.04199C12.5314 1.04199 14.5835 3.09402 14.5835 5.62533C14.5835 8.15663 12.5314 10.2087 10.0001 10.2087C7.46883 10.2087 5.4168 8.15663 5.4168 5.62533Z" fill="#424551"/>
<path fill-rule="evenodd" clip-rule="evenodd" d="M5.08685 12.7087C4.50908 12.7087 4.05749 12.99 3.87418 13.3942C3.62047 13.9536 3.39072 14.6196 3.3365 15.2513C3.31226 15.5337 3.43 15.7418 3.59224 15.8426C4.44987 16.3753 6.43713 17.292 10.0001 17.292C13.5631 17.292 15.5504 16.3753 16.408 15.8426C16.5703 15.7418 16.688 15.5337 16.6638 15.2513C16.6096 14.6196 16.3798 13.9536 16.1261 13.3942C15.9428 12.99 15.4912 12.7087 14.9134 12.7087H5.08685ZM2.35632 12.7058C2.86294 11.5887 3.99422 11.042 5.08685 11.042H14.9134C16.006 11.042 17.1373 11.5887 17.6439 12.7058C17.9349 13.3474 18.2472 14.2099 18.3243 15.1088C18.3946 15.9273 18.0544 16.7819 17.2875 17.2583C16.1595 17.959 13.8665 18.9587 10.0001 18.9587C6.1338 18.9587 3.84072 17.959 2.71277 17.2583C1.94589 16.7819 1.60569 15.9273 1.67594 15.1088C1.75309 14.2099 2.06534 13.3474 2.35632 12.7058Z" fill="#424551"/>
</svg>
