<svg width="52" height="35" viewBox="0 0 52 35" fill="none" xmlns="http://www.w3.org/2000/svg">
<path d="M25.76 17.233C25.76 20.1617 25.4457 22.6993 24.817 24.846C24.1883 26.9927 23.3143 28.7713 22.195 30.182C21.091 31.5927 19.7723 32.643 18.239 33.333C16.721 34.023 15.0727 34.368 13.294 34.368C11.5153 34.368 9.867 34.023 8.349 33.333C6.84633 32.643 5.543 31.5927 4.439 30.182C3.335 28.7713 2.46867 26.9927 1.84 24.846C1.22667 22.6993 0.92 20.1617 0.92 17.233C0.92 14.3043 1.22667 11.7667 1.84 9.62C2.46867 7.47333 3.335 5.69467 4.439 4.284C5.543 2.87333 6.84633 1.83066 8.349 1.156C9.867 0.465999 11.5153 0.120999 13.294 0.120999C15.0727 0.120999 16.721 0.465999 18.239 1.156C19.7723 1.83066 21.091 2.87333 22.195 4.284C23.3143 5.69467 24.1883 7.47333 24.817 9.62C25.4457 11.7667 25.76 14.3043 25.76 17.233ZM18.4 17.233C18.4 14.9177 18.2543 13.024 17.963 11.552C17.6717 10.0647 17.2807 8.89933 16.79 8.056C16.3147 7.21267 15.7703 6.63766 15.157 6.331C14.5437 6.009 13.9227 5.848 13.294 5.848C12.6653 5.848 12.0443 6.009 11.431 6.331C10.833 6.63766 10.2963 7.21267 9.821 8.056C9.361 8.89933 8.98533 10.0647 8.694 11.552C8.418 13.024 8.28 14.9177 8.28 17.233C8.28 19.5637 8.418 21.465 8.694 22.937C8.98533 24.409 9.361 25.5743 9.821 26.433C10.2963 27.2763 10.833 27.859 11.431 28.181C12.0443 28.4877 12.6653 28.641 13.294 28.641C13.9227 28.641 14.5437 28.4877 15.157 28.181C15.7703 27.859 16.3147 27.2763 16.79 26.433C17.2807 25.5743 17.6717 24.409 17.963 22.937C18.2543 21.465 18.4 19.5637 18.4 17.233ZM40.5296 0.120999C42.1856 0.120999 43.6729 0.366332 44.9916 0.856998C46.3256 1.33233 47.4603 1.99933 48.3956 2.858C49.3309 3.71666 50.0439 4.744 50.5346 5.94C51.0406 7.12067 51.2936 8.424 51.2936 9.85C51.2936 11.0767 51.1173 12.2113 50.7646 13.254C50.4273 14.2967 49.9596 15.2933 49.3616 16.244C48.7636 17.1793 48.0659 18.0917 47.2686 18.981C46.4866 19.855 45.6509 20.7443 44.7616 21.649L38.2066 28.365C39.0499 28.1197 39.8779 27.928 40.6906 27.79C41.5186 27.6367 42.2929 27.56 43.0136 27.56H49.2696C50.0363 27.56 50.6419 27.7747 51.0866 28.204C51.5313 28.618 51.7536 29.17 51.7536 29.86V34H28.2016V31.7C28.2016 31.2553 28.2936 30.78 28.4776 30.274C28.6616 29.768 28.9836 29.308 29.4436 28.894L39.1036 19.165C39.9316 18.337 40.6523 17.5473 41.2656 16.796C41.8789 16.0447 42.3849 15.3087 42.7836 14.588C43.1823 13.852 43.4813 13.1237 43.6806 12.403C43.8799 11.667 43.9796 10.8927 43.9796 10.08C43.9796 8.746 43.6576 7.72633 43.0136 7.021C42.3849 6.30033 41.4189 5.94 40.1156 5.94C39.5789 5.94 39.0883 6.01667 38.6436 6.17C38.1989 6.32333 37.8003 6.53033 37.4476 6.791C37.0949 7.05167 36.7883 7.35833 36.5276 7.711C36.2823 8.06367 36.0829 8.447 35.9296 8.861C35.6843 9.551 35.3699 10.0493 34.9866 10.356C34.6186 10.6627 34.1126 10.816 33.4686 10.816C33.3153 10.816 33.1466 10.8083 32.9626 10.793C32.7939 10.7777 32.6176 10.7547 32.4336 10.724L28.6616 10.057C28.9069 8.38567 29.3746 6.929 30.0646 5.687C30.7699 4.445 31.6363 3.41 32.6636 2.582C33.7063 1.754 34.8946 1.14066 36.2286 0.741998C37.5626 0.327998 38.9963 0.120999 40.5296 0.120999Z" fill="#D7DADD"/>
</svg>
