<svg width="53" height="35" viewBox="0 0 53 35" fill="none" xmlns="http://www.w3.org/2000/svg">
<path d="M25.76 17.233C25.76 20.1617 25.4457 22.6993 24.817 24.846C24.1883 26.9927 23.3143 28.7713 22.195 30.182C21.091 31.5927 19.7723 32.643 18.239 33.333C16.721 34.023 15.0727 34.368 13.294 34.368C11.5153 34.368 9.867 34.023 8.349 33.333C6.84633 32.643 5.543 31.5927 4.439 30.182C3.335 28.7713 2.46867 26.9927 1.84 24.846C1.22667 22.6993 0.92 20.1617 0.92 17.233C0.92 14.3043 1.22667 11.7667 1.84 9.62C2.46867 7.47333 3.335 5.69467 4.439 4.284C5.543 2.87333 6.84633 1.83066 8.349 1.156C9.867 0.465999 11.5153 0.120999 13.294 0.120999C15.0727 0.120999 16.721 0.465999 18.239 1.156C19.7723 1.83066 21.091 2.87333 22.195 4.284C23.3143 5.69467 24.1883 7.47333 24.817 9.62C25.4457 11.7667 25.76 14.3043 25.76 17.233ZM18.4 17.233C18.4 14.9177 18.2543 13.024 17.963 11.552C17.6717 10.0647 17.2807 8.89933 16.79 8.056C16.3147 7.21267 15.7703 6.63766 15.157 6.331C14.5437 6.009 13.9227 5.848 13.294 5.848C12.6653 5.848 12.0443 6.009 11.431 6.331C10.833 6.63766 10.2963 7.21267 9.821 8.056C9.361 8.89933 8.98533 10.0647 8.694 11.552C8.418 13.024 8.28 14.9177 8.28 17.233C8.28 19.5637 8.418 21.465 8.694 22.937C8.98533 24.409 9.361 25.5743 9.821 26.433C10.2963 27.2763 10.833 27.859 11.431 28.181C12.0443 28.4877 12.6653 28.641 13.294 28.641C13.9227 28.641 14.5437 28.4877 15.157 28.181C15.7703 27.859 16.3147 27.2763 16.79 26.433C17.2807 25.5743 17.6717 24.409 17.963 22.937C18.2543 21.465 18.4 19.5637 18.4 17.233ZM41.1736 0.120999C42.8296 0.120999 44.3016 0.358666 45.5896 0.833999C46.8776 1.294 47.9663 1.92267 48.8556 2.72C49.7449 3.51733 50.4196 4.445 50.8796 5.503C51.3396 6.54567 51.5696 7.64967 51.5696 8.815C51.5696 9.873 51.4623 10.8083 51.2476 11.621C51.0329 12.4183 50.7109 13.116 50.2816 13.714C49.8676 14.2967 49.3463 14.795 48.7176 15.209C48.1043 15.623 47.3989 15.968 46.6016 16.244C50.3123 17.532 52.1676 20.0543 52.1676 23.811C52.1676 25.5897 51.8456 27.1383 51.2016 28.457C50.5576 29.7757 49.6913 30.872 48.6026 31.746C47.5293 32.62 46.2796 33.2793 44.8536 33.724C43.4276 34.1533 41.9403 34.368 40.3916 34.368C38.7969 34.368 37.3786 34.1993 36.1366 33.862C34.8946 33.5093 33.7906 32.9727 32.8246 32.252C31.8586 31.516 31.0076 30.5807 30.2716 29.446C29.5509 28.3113 28.9223 26.962 28.3856 25.398L31.5596 24.11C31.8356 23.9873 32.1039 23.903 32.3646 23.857C32.6406 23.811 32.9089 23.788 33.1696 23.788C33.6603 23.788 34.0973 23.8877 34.4806 24.087C34.8793 24.271 35.1783 24.547 35.3776 24.915C36.0676 26.1877 36.7959 27.1153 37.5626 27.698C38.3446 28.2653 39.2569 28.549 40.2996 28.549C41.0969 28.549 41.7869 28.4187 42.3696 28.158C42.9676 27.882 43.4583 27.537 43.8416 27.123C44.2403 26.6937 44.5393 26.2107 44.7386 25.674C44.9379 25.1373 45.0376 24.593 45.0376 24.041C45.0376 23.3203 44.9839 22.6763 44.8766 22.109C44.7846 21.5263 44.5086 21.028 44.0486 20.614C43.5886 20.2 42.8909 19.8857 41.9556 19.671C41.0356 19.441 39.7476 19.326 38.0916 19.326V14.404C39.4869 14.404 40.6139 14.2967 41.4726 14.082C42.3313 13.8673 42.9906 13.576 43.4506 13.208C43.9259 12.8247 44.2403 12.3647 44.3936 11.828C44.5469 11.2913 44.6236 10.701 44.6236 10.057C44.6236 8.73833 44.3016 7.72633 43.6576 7.021C43.0289 6.30033 42.0629 5.94 40.7596 5.94C40.2229 5.94 39.7323 6.01667 39.2876 6.17C38.8429 6.32333 38.4443 6.53033 38.0916 6.791C37.7389 7.05167 37.4323 7.35833 37.1716 7.711C36.9263 8.06367 36.7269 8.447 36.5736 8.861C36.3283 9.551 36.0139 10.0493 35.6306 10.356C35.2626 10.6627 34.7566 10.816 34.1126 10.816C33.9593 10.816 33.7906 10.8083 33.6066 10.793C33.4379 10.7777 33.2616 10.7547 33.0776 10.724L29.3056 10.057C29.5509 8.38567 30.0186 6.929 30.7086 5.687C31.4139 4.445 32.2803 3.41 33.3076 2.582C34.3503 1.754 35.5386 1.14066 36.8726 0.741998C38.2066 0.327998 39.6403 0.120999 41.1736 0.120999Z" fill="#D7DADD"/>
</svg>
