<svg width="53" height="35" viewBox="0 0 53 35" fill="none" xmlns="http://www.w3.org/2000/svg">
<path d="M25.76 17.233C25.76 20.1617 25.4457 22.6993 24.817 24.846C24.1883 26.9927 23.3143 28.7713 22.195 30.182C21.091 31.5927 19.7723 32.643 18.239 33.333C16.721 34.023 15.0727 34.368 13.294 34.368C11.5153 34.368 9.867 34.023 8.349 33.333C6.84633 32.643 5.543 31.5927 4.439 30.182C3.335 28.7713 2.46867 26.9927 1.84 24.846C1.22667 22.6993 0.92 20.1617 0.92 17.233C0.92 14.3043 1.22667 11.7667 1.84 9.62C2.46867 7.47333 3.335 5.69467 4.439 4.284C5.543 2.87333 6.84633 1.83066 8.349 1.156C9.867 0.465999 11.5153 0.120999 13.294 0.120999C15.0727 0.120999 16.721 0.465999 18.239 1.156C19.7723 1.83066 21.091 2.87333 22.195 4.284C23.3143 5.69467 24.1883 7.47333 24.817 9.62C25.4457 11.7667 25.76 14.3043 25.76 17.233ZM18.4 17.233C18.4 14.9177 18.2543 13.024 17.963 11.552C17.6717 10.0647 17.2807 8.89933 16.79 8.056C16.3147 7.21267 15.7703 6.63766 15.157 6.331C14.5437 6.009 13.9227 5.848 13.294 5.848C12.6653 5.848 12.0443 6.009 11.431 6.331C10.833 6.63766 10.2963 7.21267 9.821 8.056C9.361 8.89933 8.98533 10.0647 8.694 11.552C8.418 13.024 8.28 14.9177 8.28 17.233C8.28 19.5637 8.418 21.465 8.694 22.937C8.98533 24.409 9.361 25.5743 9.821 26.433C10.2963 27.2763 10.833 27.859 11.431 28.181C12.0443 28.4877 12.6653 28.641 13.294 28.641C13.9227 28.641 14.5437 28.4877 15.157 28.181C15.7703 27.859 16.3147 27.2763 16.79 26.433C17.2807 25.5743 17.6717 24.409 17.963 22.937C18.2543 21.465 18.4 19.5637 18.4 17.233ZM49.1316 20.982H52.5816V24.984C52.5816 25.3367 52.4589 25.6433 52.2136 25.904C51.9836 26.1647 51.6463 26.295 51.2016 26.295H49.1316V34H42.9216V26.295H29.4436C28.9989 26.295 28.5926 26.157 28.2246 25.881C27.8719 25.605 27.6496 25.26 27.5576 24.846L26.8216 21.327L42.3236 0.489H49.1316V20.982ZM42.9216 12.242C42.9216 11.7053 42.9369 11.1303 42.9676 10.517C43.0136 9.88833 43.0749 9.24433 43.1516 8.585L34.2966 20.982H42.9216V12.242Z" fill="#FF3F3A"/>
</svg>
