<svg width="20" height="20" viewBox="0 0 20 20" fill="none" xmlns="http://www.w3.org/2000/svg">
<g clip-path="url(#clip0_2492_17810)">
<path d="M10 19.1673C15.0542 19.1673 19.1667 15.0553 19.1667 10.0007C19.1667 9.12822 19.0449 8.26847 18.8038 7.44509C18.685 7.04021 18.2622 6.80765 17.8562 6.92645C17.4509 7.04487 17.2191 7.46915 17.3375 7.87403C17.5373 8.5581 17.6389 9.27387 17.6389 10.0007C17.6389 14.2127 14.212 17.6395 10 17.6395C5.78799 17.6395 2.36112 14.2127 2.36112 10.0007C2.36112 5.78863 5.78799 2.36176 10 2.36176C11.5308 2.36176 13.0035 2.80935 14.259 3.65586C14.6085 3.89178 15.0837 3.79909 15.3193 3.44959C15.555 3.09973 15.463 2.62491 15.1132 2.38918C13.6044 1.37184 11.8364 0.833984 10 0.833984C4.94577 0.833984 0.833344 4.94604 0.833344 10.0007C0.833344 15.0553 4.94577 19.1673 10 19.1673Z" fill="#FF3F3A"/>
<path d="M18.5773 1.91131L9.99986 10.4884L7.25572 7.74464C6.9302 7.41932 6.40285 7.41932 6.07733 7.74464C5.75201 8.07016 5.75201 8.5975 6.07733 8.92302L9.41066 12.2564C9.57363 12.4193 9.78644 12.5005 9.99986 12.5005C10.2133 12.5005 10.4261 12.4193 10.5891 12.2564L19.7557 3.08969C20.081 2.76417 20.081 2.23683 19.7557 1.91131C19.4302 1.58599 18.9029 1.58599 18.5773 1.91131Z" fill="#FF3F3A"/>
</g>
<defs>
<clipPath id="clip0_2492_17810">
<rect width="20" height="20" fill="white"/>
</clipPath>
</defs>
</svg>
