<svg width="232" height="199" viewBox="0 0 232 199" fill="none" xmlns="http://www.w3.org/2000/svg">
<g clip-path="url(#clip0_104_741)">
<path fill-rule="evenodd" clip-rule="evenodd" d="M0.240967 71.9927L0.277403 72.0348C0.905934 71.6952 1.45248 70.936 1.96829 70.4425C3.1502 69.3095 5.62902 67.0628 6.62989 66.0073C7.55219 65.035 8.71247 64.0662 9.53456 63.2307L11.1981 61.5779C11.378 61.4024 11.4885 61.3465 11.6593 61.1847C11.8335 61.0194 11.7116 61.1231 11.838 60.9863C11.9918 60.8199 11.8483 60.9533 12.0282 60.7982C12.4039 60.4757 12.478 60.3377 12.8332 59.9958L17.8489 55.1594C18.1814 54.8688 18.3625 54.6659 18.671 54.3684L26.6188 46.7781C26.8089 46.5969 26.7747 46.5752 26.9877 46.3917L29.512 43.9901C30.3057 43.1933 31.1335 42.2917 32.0182 41.5702L33.6294 39.9607C33.9493 39.6404 34.2055 39.4865 34.5312 39.1571L36.6046 37.1544C36.7083 37.0564 36.8255 36.9128 36.9793 36.7748L38.6474 35.1266C38.9525 34.8314 39.1905 34.6832 39.5014 34.3698L46.1362 27.9331C46.307 27.7678 46.4277 27.6937 46.586 27.5261C47.5117 26.5493 48.6492 25.6021 49.4907 24.7495L52.7882 21.5135C53.0842 21.2274 53.329 21.021 53.5875 20.719C54.1113 20.9401 61.9941 29.2405 63.0849 30.3495C64.671 31.9613 66.198 33.54 67.8296 35.1722L72.4821 39.9938C73.2086 40.8521 74.0865 41.6238 74.8824 42.4239L79.5611 47.2181C82.7572 50.4017 85.753 53.6913 88.9412 56.8795C89.7348 57.6728 90.5273 58.465 91.3107 59.2458C91.7559 59.6903 92.0531 60.0893 92.4938 60.5258C92.9116 60.9373 93.2578 61.3066 93.6802 61.709C94.4944 62.4829 95.3165 63.3184 96.0053 64.1198C96.6885 64.9131 97.5744 65.7087 98.3635 66.4975C99.1844 67.3193 99.871 68.0967 100.685 68.9128C101.903 70.1313 104.407 72.8327 105.421 73.7458C106.27 74.5129 107.021 75.3427 107.741 76.1622C108.306 76.8028 108.968 77.3146 109.551 77.9506C109.762 78.182 109.868 78.3188 110.095 78.5445C110.778 79.2261 112.899 81.5754 113.653 82.1852C114.02 82.4815 115.335 82.3345 115.893 82.3345H134.923C137.397 82.3345 142.244 82.4701 144.422 82.3163L150.471 74.7511C150.99 74.0763 151.481 73.5166 151.986 72.8544L155.017 69.0655C155.505 68.4329 155.984 67.9075 156.501 67.2361L182.176 35.2133C182.482 34.8212 182.639 34.6297 182.942 34.2752C184.661 32.2679 186.53 29.807 188.21 27.7017C188.73 27.052 189.183 26.49 189.726 25.8061L192.009 22.9736C192.215 22.7171 192.454 22.2942 192.774 22.0902C193.588 22.8778 196.757 27.3666 197.622 28.4574C199.285 30.5547 200.766 32.701 202.399 34.7642C204.872 37.8873 207.154 41.0903 209.571 44.2671L219.121 56.8863C220.4 58.6029 230.832 72.1933 230.971 72.688L231.131 72.6333C230.449 71.1207 229.619 69.5819 228.867 68.0762L199.197 9.06178C198.101 6.86415 195.504 1.90924 194.691 0L69.4044 15.3537L65.098 11.4657C64.9045 11.2845 64.7177 11.1762 64.5264 10.9904L59.7658 6.65784C58.9186 5.97621 57.9724 4.97999 57.1423 4.26416L56.1016 3.31467C55.8807 3.13344 55.7407 3.02857 55.53 2.8405L53.4474 0.944932C53.2026 0.688467 52.6641 0.1459 52.3612 0.0512931L47.4434 6.77638C46.9071 7.50361 46.3195 8.28212 45.8117 9.02872L42.5495 13.5334C41.4257 15.0197 40.3747 16.5346 39.2907 18.046C37.0943 21.1077 34.932 24.028 32.7594 27.052C31.6572 28.5862 30.5129 30.0452 29.4915 31.5509C27.5604 34.3971 25.0281 37.5693 23.0024 40.5044C21.1635 43.1671 18.3978 46.8784 16.4757 49.5172C12.1546 55.4489 7.6057 61.6064 3.40753 67.5222C2.95435 68.1605 0.333197 71.6302 0.240967 71.9927Z" fill="white"/>
<path fill-rule="evenodd" clip-rule="evenodd" d="M213.382 135.609C212.946 134.506 210.433 127.672 210.15 127.271L200.377 127.289L200.354 127.828L203.428 127.855C203.524 128.629 203.449 146.922 203.45 148.66C203.451 149.862 203.53 150.777 202.816 151.509C201.863 152.486 200.919 152.165 200.352 152.451L200.345 152.921C201.38 152.941 206.778 153.1 207.293 152.83L207.284 152.405C204.795 152.151 204.061 151.67 204.064 149.039L204.058 129.445C204.529 130.258 208.297 140.461 208.76 141.662C209.545 143.698 210.304 145.72 211.087 147.77C211.854 149.781 212.718 151.884 213.395 153.882L213.977 153.853C214.727 151.913 215.407 149.687 216.061 147.709C216.738 145.669 217.445 143.659 218.122 141.62L222.236 129.516L222.348 152.381C221.692 152.398 219.66 152.281 219.18 152.45L219.17 152.83C219.515 153.022 230.741 152.976 231.982 152.917L231.92 152.39H228.815V127.843L231.938 127.828L231.928 127.271H222.43C222.106 127.8 219.936 134.429 219.524 135.63C219.152 136.715 216.918 143.677 216.633 143.993C216.362 143.652 213.801 136.67 213.382 135.609Z" fill="white"/>
<path fill-rule="evenodd" clip-rule="evenodd" d="M17.7135 127.817C18.531 127.777 23.3646 127.72 23.7756 127.878C24.1411 128.056 25.3219 131.306 25.5633 131.89C26.1372 133.278 26.6803 134.662 27.2804 136.049C27.6891 136.996 27.3009 137.44 26.982 138.316C26.6268 139.293 24.8312 144.501 24.5249 144.662L21.0827 136.28C20.6307 135.193 17.6805 128.351 17.7135 127.817ZM38.1555 144.396L37.9939 144.705C37.7217 144.597 37.7718 144.655 37.6283 144.323C37.494 143.406 30.9969 128.687 30.9764 127.822C31.6812 127.77 32.9872 127.968 33.5076 127.729C33.4962 127.157 33.6032 127.293 32.1947 127.298C28.6615 127.312 8.25707 127.155 7.43042 127.361C7.4771 127.868 7.43384 127.823 8.04187 127.819C10.5754 127.8 10.4945 127.504 10.9636 128.683L11.9884 131.166C12.4484 132.289 12.8936 133.351 13.3366 134.459C14.2236 136.669 15.1356 138.827 16.0408 141.04L20.8163 152.658C20.9336 152.94 21.0304 153.189 21.1476 153.472C21.2968 153.833 21.3458 153.915 21.8354 153.83C22.128 153.407 25.799 143.086 26.3353 141.654C26.5824 140.993 27.5696 138.034 27.8394 137.686C28.3518 138.07 33.9995 153.119 34.6508 153.852C35.326 153.888 35.2281 153.594 35.6676 152.433C38.1294 145.942 40.5273 139.147 42.9458 132.601C43.4331 131.281 43.744 130.15 44.549 129.275C45.8755 127.833 47.4081 127.993 47.9046 127.732L47.883 127.347C47.2829 127.212 41.4246 127.236 40.9486 127.363C41.0317 128.354 41.7878 127.403 42.7579 128.704C43.3102 129.445 43.3102 130.144 42.9606 131.094C42.4027 132.611 41.8857 134.002 41.3244 135.528C40.9623 136.513 38.1009 144.044 38.1555 144.396Z" fill="#EFA35A"/>
<path fill-rule="evenodd" clip-rule="evenodd" d="M133.429 152.349L133.431 127.858C134.434 127.725 137.261 127.797 138.132 128.096C139.311 128.503 140.298 129.472 140.804 130.453C141.645 132.083 141.302 137.8 141.302 140.035C141.302 141.709 141.302 143.384 141.302 145.058C141.302 146.699 141.483 148.231 140.845 149.659C140.396 150.663 139.345 151.668 138.242 152.078C137.292 152.43 134.516 152.523 133.429 152.349ZM133.029 127.271C131.862 127.272 124.204 127.17 123.747 127.333L123.736 127.713C124.307 128.069 126.116 127.762 126.949 127.856L126.948 152.348C126.147 152.472 124.339 152.237 123.743 152.45L123.731 152.831C124.162 153.069 131.968 152.921 133.124 152.924C136.126 152.934 138.917 153.142 141.51 151.934C142.07 151.673 142.569 151.406 143.046 151.103C143.433 150.857 144.168 150.326 144.396 150.085L145.524 148.847C147.332 146.547 148.424 143.24 148.392 140.035C148.358 136.502 146.733 132.101 144.269 130.018C140.786 127.076 137.586 127.263 133.029 127.271Z" fill="white"/>
<path fill-rule="evenodd" clip-rule="evenodd" d="M174.601 127.384C177.161 127.041 179.244 128.945 179.72 130.921C180.126 132.611 179.894 137.441 179.894 139.465C179.894 141.215 179.978 146.955 179.869 148.247C179.38 154.01 171.756 154.348 170.49 149.267C170.131 147.826 170.356 142.534 170.356 140.698C170.356 137.807 170.262 134.754 170.361 131.883C170.383 131.27 170.535 130.64 170.756 130.127C171.118 129.29 172.084 128.305 172.881 127.89C173.413 127.613 173.909 127.476 174.601 127.384ZM187.112 140.698C187.26 139.107 186.841 136.725 186.362 135.265C185.521 132.7 184.462 131.023 182.641 129.42C178.223 125.53 170.413 126.058 166.642 130.274C166.465 130.472 166.391 130.507 166.232 130.714C166.109 130.877 166.07 130.942 165.909 131.147C162.058 136.045 162.23 144.127 165.981 149.132C170.048 154.559 179.115 154.856 183.602 149.903C184.096 149.359 184.563 148.772 184.977 148.06C186.52 145.406 186.822 143.786 187.112 140.698Z" fill="white"/>
<path fill-rule="evenodd" clip-rule="evenodd" d="M54.4438 55.7159C54.1978 56.3064 54.3652 61.9555 54.3652 63.0725C54.3652 65.5369 54.2935 68.1106 54.3652 70.5602L70.4497 70.5716L70.436 53.6836L69.9191 53.736C69.3213 53.6916 63.1396 54.5396 62.0818 54.7003C60.8019 54.8953 59.4936 55.032 58.2195 55.195C57.1378 55.3341 55.4253 55.464 54.4438 55.7159Z" fill="white"/>
<path fill-rule="evenodd" clip-rule="evenodd" d="M54.3948 87.7071L70.4577 89.238L70.4406 72.9336H54.355L54.3948 87.7071Z" fill="white"/>
<path fill-rule="evenodd" clip-rule="evenodd" d="M34.6895 85.8207L51.3934 87.4564L51.4287 72.9062L34.6531 72.9336L34.6895 85.8207Z" fill="white"/>
<path fill-rule="evenodd" clip-rule="evenodd" d="M34.6211 70.6247L51.4764 70.5939L51.4434 56.0859L34.5938 58.2995L34.6211 70.6247Z" fill="white"/>
<path fill-rule="evenodd" clip-rule="evenodd" d="M102.081 127.428C102.081 127.935 102.153 127.82 102.679 127.876C105.499 128.176 105.192 130.385 105.192 132.451C105.192 134.968 105.351 138.049 105.187 140.494C104.847 140.343 102.415 136.261 102.018 135.627C100.998 133.993 99.9985 132.396 98.9623 130.726C96.4266 126.634 97.4183 127.289 94.3053 127.289C93.1177 127.289 86.9963 127.153 86.4338 127.389C86.476 127.852 86.4486 127.811 87.0043 127.816C87.5212 127.82 89.3328 127.701 89.5059 127.902C89.679 128.104 89.5719 146.156 89.5662 148.945C89.5571 153.518 86.3632 151.53 86.4543 152.83C86.8586 153.006 92.6679 153.002 93.0938 152.859C93.2031 152.607 93.1826 152.815 93.1473 152.45C91.8526 151.903 90.0809 152.768 90.098 148.848L90.0957 128.971C90.4817 129.113 90.246 128.904 90.5193 129.332L104.437 151.691C104.947 152.528 105.071 152.972 105.615 152.888C105.672 152.775 105.651 152.87 105.693 152.637L105.708 151.977C105.625 145.263 105.704 138.155 105.695 131.407C105.694 130.289 105.785 129.279 106.46 128.601C106.8 128.26 107.113 128.102 107.622 127.97C108.801 127.662 108.772 128.123 108.826 127.371C108.48 127.245 102.456 127.136 102.081 127.428Z" fill="#EFA35A"/>
<path fill-rule="evenodd" clip-rule="evenodd" d="M72.0553 127.806C72.5039 127.804 73.1415 127.876 73.4626 127.729C73.4501 127.155 73.3977 127.281 72.7236 127.293C69.0868 127.358 63.9584 127.135 60.6426 127.363C60.695 127.945 60.7861 127.826 61.4477 127.811C64.1144 127.748 63.8103 127.59 63.8069 128.756C63.7842 136.604 63.873 144.559 63.7955 152.381L62.5875 152.394C61.9396 152.398 60.5185 152.244 60.6335 152.707C60.7121 153.021 61.2587 152.92 61.6401 152.92C64.9592 152.918 70.6251 153.056 73.3943 152.858C73.5082 152.616 73.4934 152.841 73.4501 152.466C72.7544 152.234 71.1569 152.504 70.2528 152.36L70.2505 129.705C70.2505 129.362 70.1127 127.953 70.4065 127.867C70.4247 127.863 70.4566 127.848 70.4794 127.842L70.7265 127.801C70.8358 127.792 71.0806 127.8 71.2013 127.801C71.4859 127.804 71.7706 127.806 72.0553 127.806Z" fill="#EFA359"/>
<path fill-rule="evenodd" clip-rule="evenodd" d="M191.047 83.3682L191.062 71.9902L177.251 72.0085V85.3846L191.047 83.3682Z" fill="white"/>
<path fill-rule="evenodd" clip-rule="evenodd" d="M177.246 69.7735L191.068 69.8088C191.02 68.0216 191.269 59.3747 190.975 58.4639L177.243 56.5137L177.246 69.7735Z" fill="white"/>
<path fill-rule="evenodd" clip-rule="evenodd" d="M206.195 81.1925L206.212 71.9883L193.347 72.0054L193.369 83.0516L206.195 81.1925Z" fill="white"/>
<path fill-rule="evenodd" clip-rule="evenodd" d="M193.342 69.7734L206.218 69.8088C206.178 68.3452 206.381 61.3488 206.151 60.6136L193.339 58.791L193.342 69.7734Z" fill="white"/>
<path fill-rule="evenodd" clip-rule="evenodd" d="M49.8403 195.783C49.6604 196.23 49.5807 195.865 49.5784 195.862C49.3233 195.16 47.6256 190.814 47.3398 190.5L46.3287 190.497C46.2194 190.996 46.2217 196.867 46.3367 197.34L47.0267 197.313L47.0335 191.785C47.5004 192.3 49.0353 196.877 49.4919 197.354C49.9906 197.342 49.8927 197.32 50.06 196.873L50.9755 194.663C51.3729 193.676 51.776 192.73 52.146 191.769C52.1608 191.79 52.1745 191.821 52.1802 191.839C52.187 191.858 52.2041 191.89 52.2109 191.912C52.3692 192.442 52.1586 196.407 52.2963 197.344L53.0285 197.332L52.9875 190.49L51.9411 190.514C51.6712 190.853 49.8448 195.413 49.8403 195.783Z" fill="white"/>
<path fill-rule="evenodd" clip-rule="evenodd" d="M146.257 191.191L148.964 191.189L148.966 196.64L145.372 196.653C145.659 195.756 145.999 195.386 146.133 194.226C146.255 193.18 146.242 192.242 146.257 191.191ZM144.501 197.344L149.783 197.369L149.787 198.998L150.517 198.944L150.483 196.67L149.719 196.612L149.667 190.488L145.556 190.5C145.343 191.424 145.569 193.098 145.352 194.262C145.248 194.823 145.115 195.306 144.893 195.79C143.989 197.766 143.519 195.174 143.77 198.966L144.486 198.978L144.501 197.344Z" fill="white"/>
<path fill-rule="evenodd" clip-rule="evenodd" d="M26.9592 191.192L29.6669 191.189L29.6681 196.64L26.0927 196.653C26.3694 195.781 26.7269 195.401 26.8579 194.231C26.9763 193.162 26.941 192.267 26.9592 191.192ZM30.4742 196.665C30.3945 196.492 30.4605 196.863 30.3968 196.431L30.3854 190.545C29.2934 190.574 27.1585 190.425 26.2191 190.619C26.1178 191.888 26.3182 193.077 26.0563 194.373C25.947 194.917 25.8126 195.449 25.5872 195.879C25.5325 195.983 25.2695 196.42 25.2239 196.465C24.8926 196.805 24.9871 196.55 24.5032 196.712L24.5237 198.985L25.1886 198.978L25.2 197.344L30.4845 197.37L30.489 198.997L31.2189 198.944L31.1847 196.661L30.4742 196.665Z" fill="white"/>
<path fill-rule="evenodd" clip-rule="evenodd" d="M74.1663 191.236L76.8751 191.182L76.8786 196.629L73.2873 196.651C73.5867 195.787 73.8896 195.371 74.0297 194.249C74.164 193.163 74.1265 192.318 74.1663 191.236ZM73.359 193.089C73.3681 193.854 73.2235 194.696 72.9821 195.364C72.406 196.958 72.1748 196.536 71.6567 196.711L71.6704 198.991L72.4037 198.952L72.4048 197.343L77.6722 197.345L77.6836 198.964L78.4078 198.976L78.3554 196.654L77.6471 196.627L77.6357 190.591L73.4831 190.562C73.4877 190.994 73.5936 192.908 73.359 193.089Z" fill="white"/>
<path fill-rule="evenodd" clip-rule="evenodd" d="M199.749 190.524C199.596 191.518 199.716 193.609 199.716 194.721C199.714 197.007 199.44 197.416 200.242 197.359C200.682 197.328 200.652 197.246 200.85 196.932C201.155 196.446 203.901 192.053 204.256 191.778C204.307 192.812 204.261 193.959 204.261 195.006C204.262 197.602 204.041 197.368 204.959 197.335C205.068 196.862 205.069 190.943 204.959 190.495C203.813 190.462 204.074 190.666 203.505 191.532C203.177 192.031 202.84 192.527 202.521 193.009C202.159 193.557 200.891 195.688 200.52 195.961C200.451 194.958 200.505 193.757 200.505 192.732C200.508 190.321 200.721 190.347 199.749 190.524Z" fill="white"/>
<path fill-rule="evenodd" clip-rule="evenodd" d="M116.585 194.344C116.209 190.219 121.592 189.89 122.037 193.497C122.245 195.194 121.191 196.595 119.759 196.793C118.035 197.031 116.723 195.851 116.585 194.344ZM115.772 194.533C116.397 198.871 123.371 198.4 122.847 193.418C122.646 191.514 120.944 190.044 118.734 190.359C116.866 190.627 115.45 192.295 115.772 194.533Z" fill="white"/>
<path fill-rule="evenodd" clip-rule="evenodd" d="M35.7496 194.343C35.3078 190.249 40.8405 189.879 41.2026 193.49C41.6125 197.577 36.139 197.949 35.7496 194.343ZM34.9514 194.532C35.5674 198.892 42.5086 198.437 42.0133 193.406C41.5681 188.899 34.2341 189.456 34.9514 194.532Z" fill="white"/>
<path fill-rule="evenodd" clip-rule="evenodd" d="M154.578 197.317C155.642 197.445 155.544 197.089 156.048 196.345C156.517 195.652 158.81 191.945 159.059 191.805L159.097 197.343L159.827 197.33L159.779 190.506C159.299 190.463 159.068 190.408 158.81 190.767C158.184 191.639 155.63 195.855 155.288 196.032L155.239 190.501C154.267 190.429 154.551 190.689 154.555 191.69C154.562 193.072 154.475 196.358 154.578 197.317Z" fill="white"/>
<path fill-rule="evenodd" clip-rule="evenodd" d="M95.6978 191.213C95.8197 191.407 95.7423 191.036 95.8015 191.498L95.7252 193.776C95.2788 193.889 94.6218 193.862 94.2632 193.689C93.2942 193.671 92.521 192.758 93.0858 191.795C93.5105 191.072 94.8165 191.116 95.6978 191.213ZM96.5154 190.517C96.0577 190.445 94.5603 190.461 94.0753 190.518C93.2794 190.61 92.7693 190.901 92.4459 191.346C92.0975 191.826 92.0394 192.702 92.3127 193.306C92.6121 193.968 93.0163 194.06 93.7212 194.336C93.5025 195.138 92.1328 196.661 92.0439 197.344C93.1416 197.364 92.8034 197.471 93.7997 195.828C94.7938 194.189 94.3713 194.4 95.7548 194.408C95.7616 194.77 95.7183 197.022 95.7673 197.163C95.855 197.415 96.4698 197.528 96.5496 197.089C96.6429 196.579 96.5495 190.763 96.5154 190.517Z" fill="white"/>
<path fill-rule="evenodd" clip-rule="evenodd" d="M182.448 193.243C182.428 194.062 182.369 194.871 182.138 195.637C181.805 196.736 181.488 196.579 180.479 196.699L180.409 197.34C183.631 197.95 183.149 193.654 183.239 191.193L185.837 191.228C185.856 192.493 185.67 196.397 185.894 197.337H186.639L186.636 190.595L182.553 190.547L182.555 192.543C182.555 192.622 182.561 192.866 182.553 192.927L182.448 193.243Z" fill="white"/>
<path fill-rule="evenodd" clip-rule="evenodd" d="M127.833 194.144C129.102 194.02 130.956 193.997 130.876 195.479C130.803 196.846 129.058 196.74 127.826 196.704L127.833 194.144ZM129.765 197.236C131.161 197.339 132.114 195.817 131.471 194.486C130.882 193.268 129.242 193.522 127.823 193.413L127.841 191.21C128.422 191.137 129.289 191.187 129.905 191.187C130.652 191.188 131.492 191.442 131.139 190.553C130.681 190.354 127.839 190.439 127.164 190.508L127.156 197.261C128.011 197.309 128.942 197.276 129.765 197.236Z" fill="white"/>
<path fill-rule="evenodd" clip-rule="evenodd" d="M58.6899 194.856C58.7764 194.401 59.8889 191.697 60.1337 191.526L61.4705 194.843L58.6899 194.856ZM56.8464 197.331C57.7608 197.398 57.6162 197.39 57.9111 196.673C58.5248 195.18 57.8746 195.531 61.8143 195.584C62.05 196.14 62.2675 196.932 62.6011 197.341L63.3208 197.338C63.3014 196.972 60.6848 190.842 60.4092 190.494L59.7796 190.495C59.5063 190.923 56.8783 196.988 56.8464 197.331Z" fill="white"/>
<path fill-rule="evenodd" clip-rule="evenodd" d="M87.1035 191.202C87.1149 191.223 87.1365 191.229 87.1399 191.265L87.2014 191.498C87.2731 192.22 87.1228 196.047 87.2094 197.272L87.8618 197.269L87.863 190.548C86.8382 190.545 84.6816 190.437 83.7832 190.608C83.7012 191.894 83.8572 193.216 83.6762 194.512C83.4701 195.983 83.3175 196.689 81.7872 196.672L81.7336 197.349C84.9309 197.855 84.4812 193.768 84.5245 191.188L87.1035 191.202Z" fill="white"/>
<path fill-rule="evenodd" clip-rule="evenodd" d="M173.524 196.614L173.525 194.124L176.78 194.114L176.745 193.427L173.521 193.428L173.525 191.19C174.26 191.181 174.996 191.186 175.731 191.186C176.482 191.186 177.316 191.443 176.965 190.551C176.537 190.365 173.598 190.465 172.89 190.498C172.609 191.027 172.749 196.287 172.784 197.278L177.062 197.281L177.057 196.716C176.459 196.703 175.857 196.712 175.257 196.712C174.509 196.713 173.849 196.798 173.524 196.614Z" fill="white"/>
<path fill-rule="evenodd" clip-rule="evenodd" d="M195.574 197.187L195.548 196.652L191.979 196.657L191.989 194.122L195.227 194.118L195.194 193.426L191.979 193.435L191.997 191.193C192.771 191.172 194.903 191.335 195.469 191.128L195.479 190.648C194.988 190.408 191.991 190.515 191.254 190.554L191.256 197.273C192.037 197.295 195.051 197.43 195.574 197.187Z" fill="white"/>
<path fill-rule="evenodd" clip-rule="evenodd" d="M106.433 197.318C107.326 197.465 107.162 197.267 107.152 196.431L107.163 191.187L110.776 191.204L110.811 197.347L111.44 197.321L111.437 190.549L106.435 190.565L106.433 197.318Z" fill="white"/>
<path fill-rule="evenodd" clip-rule="evenodd" d="M136.732 196.595L136.733 194.124L140.043 194.115L140.009 193.428L136.724 193.413L136.741 191.189L140.237 191.182L140.197 190.488L136.063 190.508L136.052 197.264L140.313 197.273L140.322 196.727L137.574 196.72C136.879 196.717 136.93 196.785 136.732 196.595Z" fill="white"/>
<path fill-rule="evenodd" clip-rule="evenodd" d="M165.917 191.19L165.939 197.33L166.627 197.332L166.657 191.188L168.904 191.177L168.875 190.491H164.179C163.892 190.491 163.793 190.414 163.668 190.616C163.593 190.74 163.633 191.048 163.701 191.117C163.847 191.264 165.575 191.188 165.917 191.19Z" fill="white"/>
<path fill-rule="evenodd" clip-rule="evenodd" d="M54.3948 87.708L54.355 72.9345H70.4406L70.4577 89.2389C70.625 88.955 70.5465 87.577 70.5465 87.2419C70.5465 85.2163 70.6398 73.6184 70.5032 72.8752C69.8314 72.7533 54.9129 72.7601 54.3003 72.8821C54.1591 73.5409 54.2491 84.1996 54.2502 86.0097C54.2502 86.5887 54.1398 87.5656 54.3948 87.708Z" fill="white"/>
<path fill-rule="evenodd" clip-rule="evenodd" d="M34.6894 85.8217L34.653 72.9346L51.4286 72.9072L51.3933 87.4573C51.5721 87.1872 51.5174 86.9455 51.5129 86.5785C51.489 84.3433 51.6108 73.6595 51.4696 72.8764C50.8536 72.7408 35.318 72.7408 34.6063 72.8821C34.4162 73.7735 34.5835 82.662 34.5528 85.1594C34.5425 85.9698 34.5813 85.7498 34.6894 85.8217Z" fill="white"/>
<path fill-rule="evenodd" clip-rule="evenodd" d="M54.4437 55.7153C54.2342 55.8339 54.3219 55.5626 54.2479 56.0516C54.2422 56.0835 54.2525 56.4665 54.2525 56.5315C54.2809 58.8636 54.1557 69.813 54.2969 70.6553L70.502 70.6154C70.6432 69.8871 70.6352 54.3213 70.4929 53.634C70.1832 53.585 70.1206 53.5656 69.919 53.7354L70.436 53.683L70.4496 70.571L54.3652 70.5596C54.2934 68.11 54.3652 65.5363 54.3652 63.0719C54.3652 61.9549 54.1978 56.3058 54.4437 55.7153Z" fill="white"/>
<path fill-rule="evenodd" clip-rule="evenodd" d="M191.047 83.3681C191.182 83.2062 191.096 83.5653 191.172 83.0751L191.169 81.9342C191.171 79.9474 191.28 72.7732 191.126 71.9274C190.34 71.7861 180.157 71.9069 178.002 71.8807C177.69 71.8773 177.389 71.8032 177.251 72.0084L191.062 71.9901L191.047 83.3681Z" fill="#665A3D"/>
<path fill-rule="evenodd" clip-rule="evenodd" d="M206.195 81.1891C206.334 81.0239 206.271 81.2199 206.323 80.8917L206.318 80.036C206.317 78.394 206.414 72.6774 206.276 71.9276C205.597 71.8034 197.831 71.8809 196.467 71.8809C196.134 71.8809 193.528 71.7407 193.347 72.0051L206.212 71.988L206.195 81.1891Z" fill="white"/>
<path fill-rule="evenodd" clip-rule="evenodd" d="M177.246 69.7724C177.458 69.9822 177.383 69.9001 178.098 69.8933C180.201 69.8728 190.397 69.9856 191.124 69.8557C191.281 69.0338 191.163 62.8798 191.163 61.1757C191.163 60.5443 191.306 58.5746 190.975 58.4629C191.269 59.3736 191.02 68.0205 191.068 69.8078L177.246 69.7724Z" fill="white"/>
<path fill-rule="evenodd" clip-rule="evenodd" d="M193.342 69.77C193.491 69.917 193.277 69.8737 193.713 69.9033C194.942 69.9888 206.068 69.8896 206.273 69.8532C206.407 69.1569 206.31 63.2796 206.311 61.6502C206.311 61.2776 206.424 60.7603 206.151 60.6133C206.381 61.3482 206.178 68.3422 206.218 69.8053L193.342 69.77Z" fill="#5C513C"/>
<path fill-rule="evenodd" clip-rule="evenodd" d="M202.509 189.309C201.785 189.414 201.642 188.96 201.431 188.561C200.791 188.605 200.821 188.834 201.159 189.36C201.71 190.217 203.812 190.166 203.768 188.589C202.869 188.525 203.375 189.185 202.509 189.309Z" fill="white"/>
<path fill-rule="evenodd" clip-rule="evenodd" d="M106.433 197.318L106.435 190.564L111.437 190.548L111.44 197.32C111.503 197.197 111.462 197.443 111.531 197.092L111.54 196.428C111.53 195.125 111.62 191.159 111.49 190.457L106.374 190.506C106.231 191.276 106.329 193.083 106.329 193.964C106.329 194.645 106.205 196.908 106.433 197.318Z" fill="white"/>
<path fill-rule="evenodd" clip-rule="evenodd" d="M87.1035 191.201L87.1456 197.361L87.9176 197.331C88.0155 196.815 88.0155 190.97 87.9119 190.502C87.428 190.398 85.4957 190.46 84.7419 190.458C84.5951 190.458 84.2933 190.437 84.1681 190.449C83.7525 190.485 83.9141 190.407 83.7832 190.607C84.6816 190.436 86.8382 190.545 87.863 190.547L87.8618 197.268L87.2094 197.271C87.1228 196.046 87.2731 192.22 87.2014 191.497L87.1399 191.265C87.1365 191.228 87.1149 191.223 87.1035 191.201Z" fill="white"/>
<path fill-rule="evenodd" clip-rule="evenodd" d="M136.732 196.595C136.931 196.785 136.879 196.717 137.574 196.72L140.323 196.727L140.313 197.273L136.053 197.264L136.063 190.508C136.006 190.617 136.036 190.398 135.973 190.741C135.867 191.317 135.989 197.293 135.999 197.372L140.397 197.332L140.37 196.624L136.732 196.595Z" fill="white"/>
<path fill-rule="evenodd" clip-rule="evenodd" d="M173.524 196.615C173.849 196.8 174.509 196.715 175.257 196.713C175.857 196.713 176.458 196.704 177.057 196.718L177.062 197.283L172.784 197.28C172.749 196.288 172.609 191.029 172.89 190.5C172.708 190.596 172.684 190.277 172.696 191.311C172.7 191.595 172.697 191.881 172.697 192.165C172.699 192.733 172.699 193.302 172.699 193.871C172.697 194.831 172.605 196.461 172.733 197.377L177.137 197.334L177.11 196.619L173.524 196.615Z" fill="white"/>
<path fill-rule="evenodd" clip-rule="evenodd" d="M195.574 197.187C195.051 197.43 192.037 197.294 191.256 197.272L191.254 190.553C191.991 190.514 194.988 190.407 195.48 190.648C195.352 190.402 195.566 190.469 195.054 190.441L191.161 190.504L191.207 197.333C191.793 197.441 192.803 197.38 193.437 197.381C194.09 197.381 195.482 197.52 195.574 197.187Z" fill="white"/>
<path fill-rule="evenodd" clip-rule="evenodd" d="M129.765 197.236C128.942 197.276 128.011 197.309 127.156 197.261L127.164 190.508C126.933 190.953 127.072 197.147 127.098 197.339C127.485 197.387 129.644 197.486 129.765 197.236Z" fill="white"/>
<path fill-rule="evenodd" clip-rule="evenodd" d="M30.4743 196.665L30.4425 190.503C29.8902 190.385 28.919 190.463 28.3132 190.462C27.934 190.462 27.5549 190.464 27.1768 190.463C27.0345 190.462 26.7202 190.441 26.6018 190.452C26.1623 190.492 26.3456 190.41 26.2192 190.619C27.1586 190.425 29.2936 190.574 30.3855 190.545L30.3969 196.431C30.4607 196.863 30.3946 196.492 30.4743 196.665Z" fill="#5D5233"/>
<path fill-rule="evenodd" clip-rule="evenodd" d="M182.448 193.242L182.554 192.927C182.562 192.865 182.555 192.621 182.555 192.543L182.554 190.546L186.636 190.594C186.405 190.37 186.049 190.452 185.578 190.454C184.824 190.46 182.989 190.407 182.464 190.504L182.448 193.242Z" fill="white"/>
<path fill-rule="evenodd" clip-rule="evenodd" d="M73.3589 193.089C73.5934 192.907 73.4876 190.994 73.483 190.562L77.6356 190.591C77.483 190.415 77.6926 190.535 77.4443 190.464C77.4421 190.463 77.1893 190.448 77.1745 190.447L73.3953 190.504L73.3589 193.089Z" fill="white"/>
<path fill-rule="evenodd" clip-rule="evenodd" d="M94.2632 193.689C94.6219 193.862 95.2788 193.889 95.7252 193.776L95.8015 191.498C95.7423 191.036 95.8197 191.407 95.6979 191.213L95.7013 193.707L94.2632 193.689Z" fill="#776A55"/>
<path fill-rule="evenodd" clip-rule="evenodd" d="M38.1556 144.395C38.0725 144.444 37.9837 144.522 37.97 144.497C37.9552 144.472 37.904 144.513 37.8664 144.536L37.6284 144.322C37.7719 144.654 37.7218 144.596 37.9939 144.704L38.1556 144.395Z" fill="#E7B888"/>
<path fill-rule="evenodd" clip-rule="evenodd" d="M231.131 72.6339L230.971 72.6886C231.095 72.822 230.762 72.8744 231.122 72.8071C231.446 72.4129 231.145 72.651 231.131 72.6339Z" fill="#8E846F"/>
<path fill-rule="evenodd" clip-rule="evenodd" d="M0.277433 72.0343L0.240996 71.9922C0.015545 72.1449 0.108914 71.966 0.0178223 72.2782C0.271739 72.1791 0.157875 72.2508 0.277433 72.0343Z" fill="#504732"/>
<path fill-rule="evenodd" clip-rule="evenodd" d="M49.5784 195.864C49.5806 195.867 49.6603 196.232 49.8403 195.785L49.5784 195.864Z" fill="#675A46"/>
</g>
<defs>
<clipPath id="clip0_104_741">
<rect width="232" height="199" fill="white"/>
</clipPath>
</defs>
</svg>
